# Blender v2.76 (sub 0) OBJ File: 'banana.blend'
# www.blender.org
mtllib banana.mtl
o Cube
v -0.042484 -1.038684 -0.149457
v -0.042484 -1.038684 0.149457
v -0.060522 -0.250897 0.186699
v -0.060522 -0.250897 -0.186699
v 0.256113 -1.024931 -0.149457
v 0.256113 -1.024931 0.149457
v 0.298904 -0.344019 0.185095
v 0.298904 -0.344020 -0.185095
v -0.087705 -1.039965 0.000000
v -0.085376 -0.743406 -0.177906
v 0.106778 -1.031007 -0.194689
v -0.085376 -0.743406 0.177906
v 0.106778 -1.031007 0.194689
v -0.076189 -0.143386 -0.000000
v 0.145828 -0.200738 0.230601
v 0.145828 -0.200738 -0.230601
v 0.301260 -1.022050 0.000000
v 0.269617 -0.726424 -0.177281
v 0.269617 -0.726424 0.177281
v 0.370544 -0.261234 -0.000000
v 0.093221 -0.736065 -0.208988
v 0.653948 0.806837 -0.000000
v 0.093221 -0.736065 0.208989
v 0.303863 -0.727150 0.000000
v -0.113437 -0.745295 -0.000000
v 0.250059 0.472583 -0.000000
v 0.236970 0.361519 -0.183480
v 0.444403 0.339849 0.234264
v 0.539173 0.153070 0.183948
v 0.444403 0.339849 -0.234264
v 0.539173 0.153070 -0.183948
v 0.635967 0.205924 -0.000000
v 0.236970 0.361519 0.183480
v 0.887212 0.826297 -0.000000
v 0.610850 0.705134 -0.184902
v 0.804634 0.624237 0.234632
v 0.841387 0.419420 0.181958
v 0.804635 0.624237 -0.234633
v 0.841386 0.419420 -0.181958
v 0.952011 0.445440 -0.000000
v 0.610851 0.705134 0.184901
v 0.857688 0.794973 -0.070963
v 0.826106 0.760326 -0.137524
v 0.941498 0.654695 0.179334
v 0.915081 0.493960 0.143977
v 0.941498 0.654695 -0.179334
v 0.915081 0.493960 -0.143977
v 0.995207 0.483892 -0.000000
v 0.826106 0.760326 0.137523
v 0.928305 0.574267 0.160732
v 0.928305 0.574267 -0.160732
v 0.955798 0.488616 -0.070775
v 0.857688 0.794973 0.070963
v 0.885192 0.709289 0.160950
v 0.885192 0.709289 -0.160950
v 0.955798 0.488616 0.070774
v 1.018721 0.684230 -0.067797
v 1.018721 0.684230 0.067797
v 0.997980 0.748834 -0.000000
v 1.039430 0.619726 -0.000000
v 1.007063 0.618750 0.058772
v 0.971001 0.730387 0.058546
v 0.971001 0.730387 -0.058547
v 1.007063 0.618750 -0.058772
v 1.286756 0.777335 0.045183
v 1.306949 0.783816 -0.000000
v 1.300565 0.734313 -0.000000
v 1.286756 0.777335 -0.045183
v 1.272946 0.820356 -0.000000
v 1.282194 0.732779 0.041029
v 1.257114 0.810911 0.041029
v 1.257114 0.810911 -0.041030
v 1.282195 0.732779 -0.041030
v 0.062664 -1.209425 0.000000
v 0.077445 -1.208744 0.040239
v 0.117641 -1.206893 -0.055035
v 0.157837 -1.205042 -0.040239
v 0.117641 -1.206893 0.055035
v 0.157837 -1.205042 0.040239
v 0.172617 -1.204361 0.000000
v 0.077445 -1.208744 -0.040239
vt 0.000000 0.000000
vt 1.000000 0.000000
vt 1.000000 1.000000
vt 0.000000 1.000000
vt 0.793893 0.095491
vt 0.206107 0.095492
vt 0.500000 1.000000
vt 0.975528 0.654508
vt 0.024472 0.654509
vn -0.999100 -0.043400 0.000000
vn -0.719900 -0.070600 0.690400
vn -0.730100 0.136000 0.669600
vn 0.997300 -0.072700 0.000000
vn 0.938300 -0.345800 0.000000
vn 0.644200 -0.170200 0.745700
vn 0.014700 -0.336700 0.941500
vn 0.031200 -0.620300 0.783700
vn 0.574600 -0.612900 0.542300
vn -0.001800 -0.058700 0.998300
vn 0.691900 -0.081700 0.717400
vn -0.032000 0.000600 0.999500
vn 0.554000 -0.398100 0.731100
vn -0.001800 -0.058700 -0.998300
vn -0.719900 -0.070600 -0.690400
vn -0.730100 0.136000 -0.669600
vn -0.032000 0.000600 -0.999500
vn 0.644200 -0.170200 -0.745700
vn 0.674500 -0.328600 -0.661100
vn 0.014700 -0.336700 -0.941500
vn -0.642800 -0.392900 -0.657600
vn -0.949700 0.313100 0.000000
vn -0.601400 0.412400 0.684300
vn -0.601400 0.412400 -0.684300
vn 0.732300 -0.681000 0.000000
vn -0.642800 -0.392900 0.657600
vn 0.674500 -0.328600 0.661100
vn 0.956300 -0.292300 0.000000
vn -0.924800 -0.380400 0.000000
vn -0.506100 -0.672500 -0.539900
vn 0.031200 -0.620300 -0.783700
vn 0.691900 -0.081700 -0.717400
vn -0.757200 0.653200 0.000000
vn -0.337700 0.941300 0.000000
vn -0.331200 0.635500 -0.697400
vn -0.033900 0.030400 -0.999000
vn 0.175500 0.173000 -0.969100
vn 0.524200 -0.487300 -0.698400
vn -0.331200 0.635500 0.697400
vn 0.554000 -0.398100 -0.731100
vn -0.033900 0.030400 0.999000
vn 0.111900 0.767500 -0.631200
vn 0.330600 0.632100 -0.700700
vn 0.706500 -0.316600 0.633000
vn 0.644200 -0.268300 0.716300
vn 0.175500 0.173000 0.969100
vn 0.775400 -0.452900 -0.440100
vn 0.669900 -0.742400 0.000000
vn 0.330600 0.632100 0.700700
vn 0.111900 0.767500 0.631200
vn 0.524200 -0.487300 0.698400
vn 0.706500 -0.316600 -0.633000
vn 0.644200 -0.268300 -0.716300
vn 0.496000 0.698500 -0.515700
vn 0.761600 0.256200 -0.595200
vn 0.601800 0.185600 -0.776800
vn -0.506100 -0.672500 0.539900
vn 0.829100 -0.257600 0.496200
vn 0.775400 -0.452900 0.440100
vn 0.851900 -0.523700 0.000000
vn 0.192900 0.851800 0.487000
vn 0.192900 0.851800 -0.487000
vn 0.817000 -0.576500 0.000000
vn 0.574600 -0.612900 -0.542300
vn 0.601800 0.185600 0.776800
vn 0.496000 0.698500 0.515700
vn 0.573100 0.819500 0.000000
vn 0.293600 0.955900 0.000000
vn 0.761600 0.256200 0.595200
vn -0.748000 -0.663700 0.000000
vn 0.829100 -0.257600 -0.496200
vn 0.859200 0.275800 0.431000
vn 0.952100 0.305600 0.000000
vn 0.727400 0.686200 0.000000
vn 0.906700 -0.130200 0.401100
vn 0.990900 -0.134600 0.000000
vn 0.859200 0.275800 -0.431000
vn 0.906700 -0.130200 -0.401100
vn 0.950900 -0.309500 0.000000
vn 0.661500 0.633600 0.401100
vn 0.661500 0.633600 -0.401100
usemtl Material
s 1
f 25/1/1 12/2/2 3/3/3
f 24/1/4 20/2/5 7/3/6
f 13/1/7 78/1/8 79/2/9
f 23/1/10 19/2/11 7/3/6
f 15/1/12 7/2/6 29/3/13
f 21/1/14 10/2/15 4/3/16
f 21/2/14 16/3/17 8/4/18
f 5/1/19 11/2/20 21/3/14
f 1/2/21 10/3/15 21/4/14
f 14/1/22 3/2/3 33/3/23
f 16/1/17 4/2/16 27/3/24
f 20/2/5 32/3/25 29/4/13
f 23/2/10 15/3/12 3/4/3
f 2/1/26 13/2/7 23/3/10
f 6/2/27 19/3/11 23/4/10
f 17/1/28 6/4/27 79/4/9
f 9/2/29 1/1/21 81/1/30
f 11/1/20 76/1/31 81/2/30
f 24/2/4 19/3/11 6/4/27
f 5/1/19 18/2/32 24/3/4
f 8/2/18 20/3/5 24/4/4
f 25/2/1 14/3/22 4/4/16
f 1/1/21 9/2/29 25/3/1
f 2/2/26 12/3/2 25/4/1
f 26/2/33 22/3/34 35/4/35
f 30/2/36 38/3/37 39/4/38
f 26/1/33 33/2/23 41/3/39
f 30/1/36 27/2/24 35/3/35
f 20/1/5 8/2/18 31/3/40
f 15/2/12 28/3/41 33/4/23
f 16/2/17 30/3/36 31/4/40
f 14/2/22 26/3/33 27/4/24
f 43/5/42 55/6/43 38/7/37
f 45/5/44 50/6/45 36/7/46
f 39/8/38 52/6/47 40/7/48
f 36/8/46 54/6/49 49/9/50
f 32/2/25 40/3/48 37/4/51
f 28/2/41 36/3/46 41/4/39
f 32/1/25 31/2/40 39/3/38
f 28/1/41 29/2/13 37/3/51
f 52/2/47 47/3/52 51/4/53
f 63/1/54 57/2/55 46/3/56
f 13/2/7 2/1/26 75/1/57
f 61/1/58 56/2/59 48/3/60
f 49/5/50 53/6/61 22/7/34
f 38/8/37 51/6/53 47/9/52
f 22/8/34 42/6/62 43/9/42
f 40/8/48 56/6/59 37/7/51
f 17/4/28 80/4/63 77/1/64
f 44/1/65 50/2/45 61/3/58
f 50/1/45 45/2/44 56/3/59
f 62/2/66 59/3/67 34/4/68
f 54/2/49 62/3/66 53/4/61
f 44/2/65 58/3/69 62/4/66
f 42/1/62 63/2/54 55/3/43
f 34/1/68 59/2/67 63/3/54
f 9/1/29 74/1/70 75/2/57
f 64/2/71 51/3/53 46/4/56
f 11/2/20 5/1/19 77/1/64
f 48/2/60 52/3/47 64/4/71
f 65/2/72 66/3/73 69/4/74
f 65/1/72 70/2/75 67/3/76
f 69/1/74 66/2/73 68/3/77
f 67/2/76 73/3/78 68/4/77
f 14/4/22 25/1/1 3/3/3
f 19/4/11 24/1/4 7/3/6
f 6/2/27 13/1/7 79/2/9
f 15/4/12 23/1/10 7/3/6
f 28/4/41 15/1/12 29/3/13
f 16/4/17 21/1/14 4/3/16
f 18/1/32 21/2/14 8/4/18
f 18/4/32 5/1/19 21/3/14
f 11/1/20 1/2/21 21/4/14
f 26/4/33 14/1/22 33/3/23
f 30/4/36 16/1/17 27/3/24
f 7/1/6 20/2/5 29/4/13
f 12/1/2 23/2/10 3/4/3
f 12/4/2 2/1/26 23/3/10
f 13/1/7 6/2/27 23/4/10
f 80/1/63 17/1/28 79/4/9
f 74/2/70 9/2/29 81/1/30
f 1/2/21 11/1/20 81/2/30
f 17/1/28 24/2/4 6/4/27
f 17/4/28 5/1/19 24/3/4
f 18/1/32 8/2/18 24/4/4
f 10/1/15 25/2/1 4/4/16
f 10/4/15 1/1/21 25/3/1
f 9/1/29 2/2/26 25/4/1
f 27/1/24 26/2/33 35/4/35
f 31/1/40 30/2/36 39/4/38
f 22/4/34 26/1/33 41/3/39
f 38/4/37 30/1/36 35/3/35
f 32/4/25 20/1/5 31/3/40
f 3/1/3 15/2/12 33/4/23
f 8/1/18 16/2/17 31/4/40
f 4/1/16 14/2/22 27/4/24
f 46/9/56 38/7/37 55/6/43
f 35/8/35 43/5/42 38/7/37
f 44/9/65 36/7/46 50/6/45
f 37/8/51 45/5/44 36/7/46
f 48/9/60 40/7/48 52/6/47
f 39/8/38 47/5/52 52/6/47
f 49/9/50 41/7/39 36/8/46
f 36/8/46 44/5/65 54/6/49
f 29/1/13 32/2/25 37/4/51
f 33/1/23 28/2/41 41/4/39
f 40/4/48 32/1/25 39/3/38
f 36/4/46 28/1/41 37/3/51
f 64/1/71 52/2/47 51/4/53
f 55/4/43 63/1/54 46/3/56
f 78/2/8 13/2/7 75/1/57
f 60/4/79 61/1/58 48/3/60
f 34/9/68 22/7/34 53/6/61
f 41/8/39 49/5/50 22/7/34
f 47/9/52 39/7/38 38/8/37
f 38/8/37 46/5/56 51/6/53
f 43/9/42 35/7/35 22/8/34
f 22/8/34 34/5/68 42/6/62
f 45/9/44 37/7/51 56/6/59
f 40/8/48 48/5/60 56/6/59
f 5/1/19 17/4/28 77/1/64
f 58/4/69 44/1/65 61/3/58
f 61/4/58 50/1/45 56/3/59
f 53/1/61 62/2/66 34/4/68
f 49/1/50 54/2/49 53/4/61
f 54/1/49 44/2/65 62/4/66
f 43/4/42 42/1/62 55/3/43
f 42/4/62 34/1/68 63/3/54
f 2/2/26 9/1/29 75/2/57
f 57/1/55 64/2/71 46/4/56
f 76/2/31 11/2/20 77/1/64
f 60/1/79 48/2/60 64/4/71
f 71/1/80 65/2/72 69/4/74
f 66/4/73 65/1/72 67/3/76
f 72/4/81 69/1/74 68/3/77
f 66/1/73 67/2/76 68/4/77
o Cube.002
v 0.062664 -1.209425 0.000000
v 0.077445 -1.208744 0.040239
v 0.117641 -1.206893 -0.055035
v 0.157837 -1.205042 -0.040239
v 0.117641 -1.206893 0.055035
v 0.157837 -1.205042 0.040239
v 0.172617 -1.204361 0.000000
v 0.077445 -1.208744 -0.040239
v 0.120024 -1.234890 0.000000
vt 0.000000 0.000000
vt 1.000000 0.000000
vt 1.000000 1.000000
vt 0.000000 1.000000
vn 0.042500 -0.943200 -0.329400
vn 0.357100 -0.878800 -0.316300
vn 0.376400 -0.926400 0.000000
vn 0.053100 -0.998600 0.000000
vn -0.267800 -0.912400 -0.309500
vn -0.281600 -0.959500 0.000000
vn 0.042500 -0.943200 0.329400
vn -0.267800 -0.912400 0.309500
vn 0.357100 -0.878800 0.316300
usemtl Material
s 1
f 84/10/82 85/11/83 88/12/84 90/13/85
f 89/10/86 84/11/82 90/12/85 82/13/87
f 82/10/87 90/11/85 86/12/88 83/13/89
f 90/10/85 88/11/84 87/12/90 86/13/88
o Cube.001
v 1.017330 0.683773 -0.066683
v 1.017330 0.683773 0.066683
v 0.996949 0.747265 -0.000000
v 1.037710 0.620281 -0.000000
v 1.008212 0.618400 0.059457
v 0.971867 0.731625 0.059457
v 0.971867 0.731625 -0.059458
v 1.008212 0.618400 -0.059458
v 1.287531 0.777583 0.045575
v 1.301461 0.734189 -0.000000
v 1.287531 0.777583 -0.045576
v 1.273601 0.820978 -0.000000
v 1.281299 0.732904 0.040637
v 1.256459 0.810289 0.040637
v 1.256459 0.810289 -0.040637
v 1.281299 0.732904 -0.040637
vt 0.000000 0.000000
vt 1.000000 0.000000
vt 1.000000 1.000000
vt 0.000000 1.000000
vn 0.071200 0.019200 0.997300
vn 0.316400 -0.639500 0.700600
vn 0.313300 -0.630600 0.710000
vn 0.069600 0.023900 0.997300
vn 0.396500 -0.918000 0.000000
vn 0.316400 -0.639500 -0.700600
vn 0.313300 -0.630600 -0.710000
vn -0.257500 0.966300 0.000000
vn -0.144300 0.691500 0.707800
vn -0.147400 0.700500 0.698300
vn 0.071200 0.019200 -0.997300
vn 0.069600 0.023900 -0.997300
vn -0.144300 0.691500 -0.707800
vn -0.147400 0.700500 -0.698300
usemtl Material
s 1
f 92/14/91 95/15/92 103/16/93 99/17/94
f 94/14/95 98/15/96 106/16/97 100/17/95
f 93/14/98 96/15/99 104/16/100 102/17/98
f 98/14/96 91/15/101 101/16/102 106/17/97
f 91/14/101 97/15/103 105/16/104 101/17/102
f 95/14/92 94/15/95 100/16/95 103/17/93
f 97/14/103 93/15/98 102/16/98 105/17/104
f 96/14/99 92/15/91 99/16/94 104/17/100
