# Blender v2.76 (sub 0) OBJ File: 'laptop-stand.blend'
# www.blender.org
mtllib laptop-stand.mtl
o Cube.001
v 0.640822 0.044365 0.593107
v 0.640822 -0.025570 0.593107
v 0.640822 0.044365 -0.593107
v 0.640822 -0.025570 -0.593107
v 0.834668 0.023971 0.593107
v 0.821775 -0.025570 0.593107
v 0.834668 0.023971 -0.593107
v 0.821775 -0.025570 -0.593107
vn -1.000000 0.000000 0.000000
vn 0.000000 0.000000 -1.000000
vn 0.967800 -0.251900 0.000000
vn 0.000000 0.000000 1.000000
vn 0.104600 0.994500 0.000000
vn 0.000000 -1.000000 0.000000
usemtl Material.005
s off
f 2//1 1//1 3//1 4//1
f 4//2 3//2 7//2 8//2
f 8//3 7//3 5//3 6//3
f 6//4 5//4 1//4 2//4
f 1//5 5//5 7//5 3//5
f 6//6 2//6 4//6 8//6
o Cube
v 0.878226 0.576526 0.559587
v 0.763876 -0.011303 0.559587
v -0.360823 0.003863 0.559587
v -0.361008 0.728063 0.559587
v 0.878227 0.576526 0.437968
v 0.763876 -0.011303 0.437968
v -0.360824 0.003863 0.437968
v -0.361008 0.728063 0.437968
v 0.872491 0.534503 0.559587
v 0.763876 0.031111 0.559587
v -0.333333 0.740191 0.559587
v -0.333333 -0.011303 0.559587
v -0.371728 0.031111 0.559587
v -0.371728 0.697778 0.559587
v 0.872491 0.534502 0.437968
v 0.763876 0.031110 0.437968
v -0.333333 0.740191 0.437968
v -0.333334 -0.011303 0.437968
v -0.371728 0.031111 0.437968
v -0.371728 0.697777 0.437968
v -0.333333 0.697777 0.437968
v -0.333334 0.031110 0.437968
v -0.333333 0.697777 0.559587
v -0.333333 0.031111 0.559587
v 0.878226 0.576526 0.559587
v 0.763876 -0.011303 0.559587
v -0.360823 0.003863 0.559587
v -0.361008 0.728063 0.559587
v 0.878227 0.576526 0.437968
v 0.763876 -0.011303 0.437968
v -0.360824 0.003863 0.437968
v -0.361008 0.728063 0.437968
v 0.872491 0.534503 0.559587
v 0.763876 0.031111 0.559587
v -0.333333 0.740191 0.559587
v -0.333333 -0.011303 0.559587
v -0.371728 0.031111 0.559587
v -0.371728 0.697778 0.559587
v 0.872491 0.534502 0.437968
v 0.763876 0.031110 0.437968
v -0.333333 0.740191 0.437968
v -0.333334 -0.011303 0.437968
v -0.371728 0.031111 0.437968
v -0.371728 0.697777 0.437968
v -0.333333 0.697777 0.437968
v -0.333334 0.031110 0.437968
v -0.333333 0.697777 0.559587
v -0.333333 0.031111 0.559587
v 0.878226 0.576526 -0.440413
v 0.763876 -0.011303 -0.440413
v -0.360823 0.003863 -0.440413
v -0.361008 0.728063 -0.440413
v 0.878227 0.576526 -0.562032
v 0.763876 -0.011303 -0.562032
v -0.360824 0.003863 -0.562032
v -0.361008 0.728063 -0.562032
v 0.872491 0.534503 -0.440413
v 0.763876 0.031111 -0.440413
v -0.333333 0.740191 -0.440413
v -0.333333 -0.011303 -0.440413
v -0.371728 0.031111 -0.440413
v -0.371728 0.697778 -0.440413
v 0.872491 0.534502 -0.562032
v 0.763876 0.031110 -0.562032
v -0.333333 0.740191 -0.562032
v -0.333334 -0.011303 -0.562032
v -0.371728 0.031111 -0.562032
v -0.371728 0.697777 -0.562032
v -0.333333 0.697777 -0.562032
v -0.333334 0.031110 -0.562032
v -0.333333 0.697777 -0.440413
v -0.333333 0.031111 -0.440413
vn 0.649800 0.494400 -0.577300
vn 0.649800 0.494400 0.577300
vn 0.494300 -0.649800 0.577400
vn -0.576600 -0.509500 0.638700
vn -0.576600 -0.509500 -0.638700
vn -0.188500 -0.731700 -0.655000
vn -0.731700 -0.141000 0.666900
vn -0.730800 0.125500 0.670900
vn -0.730800 0.125500 -0.670900
vn 0.577300 -0.577300 0.577300
vn 0.577300 -0.577300 -0.577300
vn 0.577300 0.577300 -0.577300
vn -0.570100 0.530100 0.627600
vn -0.570100 0.530100 -0.627600
vn -0.188500 -0.731700 0.655000
vn -0.105400 0.751700 -0.651000
vn 0.258100 -0.295400 -0.919800
vn 0.258100 -0.295400 0.919800
vn 0.494300 -0.649800 -0.577400
vn 0.301500 0.301500 0.904500
vn 0.301500 0.301500 -0.904500
vn -0.731700 -0.141000 -0.666900
vn 0.577300 0.577300 0.577300
vn -0.105400 0.751700 0.651000
usemtl Material.003
s 1
f 13//7 9//8 17//9
f 11//10 15//11 26//12
f 21//13 22//14 28//15
f 10//16 14//17 24//18
f 15//11 11//10 21//13
f 22//14 12//19 16//20
f 20//21 26//12 14//17
f 9//8 13//7 25//22
f 25//22 16//20 12//19
f 16//20 25//22 29//23
f 31//24 22//14 21//13
f 29//23 23//25 17//9
f 29//23 31//24 32//26
f 24//18 30//27 32//26
f 37//7 33//8 41//9
f 35//10 39//11 50//12
f 45//13 46//14 52//15
f 34//16 38//17 48//18
f 39//11 35//10 45//13
f 46//14 36//19 40//20
f 44//21 50//12 38//17
f 33//8 37//7 49//22
f 49//22 40//20 36//19
f 40//20 49//22 53//23
f 55//24 46//14 45//13
f 53//23 47//25 41//9
f 53//23 55//24 56//26
f 48//18 54//27 56//26
f 61//7 57//8 65//9
f 59//10 63//11 74//12
f 69//13 70//14 76//15
f 58//16 62//17 72//18
f 63//11 59//10 69//13
f 70//14 60//19 64//20
f 68//21 74//12 62//17
f 57//8 61//7 73//22
f 73//22 64//20 60//19
f 64//20 73//22 77//23
f 79//24 70//14 69//13
f 77//23 71//25 65//9
f 77//23 79//24 80//26
f 72//18 78//27 80//26
f 23//25 13//7 17//9
f 20//21 11//10 26//12
f 27//28 21//13 28//15
f 18//29 10//16 24//18
f 27//28 15//11 21//13
f 28//15 22//14 16//20
f 10//16 20//21 14//17
f 19//30 9//8 25//22
f 19//30 25//22 12//19
f 30//27 24//18 14//17
f 14//17 26//12 30//27
f 15//11 27//28 30//27
f 28//15 16//20 29//23
f 25//22 13//7 29//23
f 30//27 26//12 15//11
f 13//7 23//25 29//23
f 29//23 30//27 27//28
f 27//28 28//15 29//23
f 20//21 10//16 18//29
f 31//24 17//9 9//8
f 20//21 18//29 32//26
f 31//24 9//8 19//30
f 20//21 32//26 11//10
f 21//13 11//10 32//26
f 12//19 22//14 31//24
f 31//24 19//30 12//19
f 21//13 32//26 31//24
f 31//24 29//23 17//9
f 30//27 29//23 32//26
f 18//29 24//18 32//26
f 47//25 37//7 41//9
f 44//21 35//10 50//12
f 51//28 45//13 52//15
f 42//29 34//16 48//18
f 51//28 39//11 45//13
f 52//15 46//14 40//20
f 34//16 44//21 38//17
f 43//30 33//8 49//22
f 43//30 49//22 36//19
f 54//27 48//18 38//17
f 38//17 50//12 54//27
f 39//11 51//28 54//27
f 52//15 40//20 53//23
f 49//22 37//7 53//23
f 54//27 50//12 39//11
f 37//7 47//25 53//23
f 53//23 54//27 51//28
f 51//28 52//15 53//23
f 44//21 34//16 42//29
f 55//24 41//9 33//8
f 44//21 42//29 56//26
f 55//24 33//8 43//30
f 44//21 56//26 35//10
f 45//13 35//10 56//26
f 36//19 46//14 55//24
f 55//24 43//30 36//19
f 45//13 56//26 55//24
f 55//24 53//23 41//9
f 54//27 53//23 56//26
f 42//29 48//18 56//26
f 71//25 61//7 65//9
f 68//21 59//10 74//12
f 75//28 69//13 76//15
f 66//29 58//16 72//18
f 75//28 63//11 69//13
f 76//15 70//14 64//20
f 58//16 68//21 62//17
f 67//30 57//8 73//22
f 67//30 73//22 60//19
f 78//27 72//18 62//17
f 62//17 74//12 78//27
f 63//11 75//28 78//27
f 76//15 64//20 77//23
f 73//22 61//7 77//23
f 78//27 74//12 63//11
f 61//7 71//25 77//23
f 77//23 78//27 75//28
f 75//28 76//15 77//23
f 68//21 58//16 66//29
f 79//24 65//9 57//8
f 68//21 66//29 80//26
f 79//24 57//8 67//30
f 68//21 80//26 59//10
f 69//13 59//10 80//26
f 60//19 70//14 79//24
f 79//24 67//30 60//19
f 69//13 80//26 79//24
f 79//24 77//23 65//9
f 78//27 77//23 80//26
f 66//29 72//18 80//26
